<svg width="120" height="60" viewBox="0 0 120 60" fill="none" xmlns="http://www.w3.org/2000/svg">
<path d="M60.0001 0C26.8632 0 0 13.4317 0 29.9999C0 46.5684 26.8632 59.9999 60.0001 59.9999C93.137 59.9999 120 46.5681 120 29.9999C120 13.4315 93.137 0 60.0001 0ZM60.0001 55.2637C29.4788 55.2637 4.73637 43.9528 4.73637 29.9999C4.73637 16.047 29.479 4.73613 60.0001 4.73613C90.5215 4.73613 115.264 16.047 115.264 29.9999C115.264 43.9528 90.5212 55.2637 60.0001 55.2637ZM52.4334 24.7368V19.9997H69.3601V24.7368H63.2663V40.0002H58.5282V24.7368H52.4334ZM89.7918 19.9997V40.0004H85.0557L76.4653 28.0941V40.0004H71.7289V19.9997H76.4651L85.0554 31.906V19.9997H89.7918ZM30.0673 40.0004V19.9997H34.8037L40.0658 28.0941L45.328 19.9997H50.0624V40.0004H45.328V28.6875L41.7355 34.2096H38.3962L34.8037 28.6875V40.0004H30.0673Z" fill="#FFCC00"/>
</svg>
